<svg xmlns="http://www.w3.org/2000/svg" xmlns:xlink="http://www.w3.org/1999/xlink" viewBox="0 0 256 256" width="128px" height="128px">
  <style type="text/css">
    @keyframes ld-pulse
{
  0% {
    animation-timing-function: cubic-bezier(0.0413,0.3905,0.5086,0.6902);
    transform: scale(1);
  }
  24.3% {
    animation-timing-function: cubic-bezier(0.2248,0.6332,0.5246,1);
    transform: scale(0.8458);
  }
  55% {
    animation-timing-function: cubic-bezier(0.3036,0.3393,0.655,0.6144);
    transform: scale(0.8022);
  }
  70.2% {
    animation-timing-function: cubic-bezier(0.4464,0.2728,0.5562,0.7288);
    transform: scale(0.8294);
  }
  82.3% {
    animation-timing-function: cubic-bezier(0.6826,0.1845,1,0.7358);
    transform: scale(0.869);
  }
  100% {
    transform: scale(1);
  }
}
.ld.ld-pulse {
  animation: ld-pulse 0.5s infinite;
}
    @keyframes ld-move {
      0% { transform: translate(0,0) }
      100% { transform: translate(256px,0) }
    }
  </style>
  <defs><g id="id-0.0728853861532952">
    

<circle fill="#F37021" cx="192" cy="64" r="48"/>
<circle fill="#F37021" cx="64" cy="192" r="48"/>
<path fill="#F37021" d="M192.002,128L192,128c-35.346,0-64,28.654-64,64v0.002c-0.001,35.344-28.653,63.996-63.998,63.998H128  h64.002c35.344-0.001,63.996-28.653,63.998-63.998V131v-3v0v-2V64.002C255.999,99.347,227.347,127.999,192.002,128z M192,240  c-26.51,0-48-21.49-48-48c0-26.51,21.49-48,48-48s48,21.49,48,48C240,218.51,218.51,240,192,240z"/>
<path fill="#F37021" d="M128,0H64C28.654,0,0,28.654,0,64v64h0.333v0H0v64c0-35.346,28.654-64,64-64l0.002,0  c35.344-0.001,63.996-28.653,63.998-63.998V64c0-35.346,28.654-64,64-64H128z M64,112c-26.51,0-48-21.49-48-48  c0-26.51,21.49-48,48-48s48,21.49,48,48C112,90.51,90.51,112,64,112z"/>
<circle fill="#FCB711" cx="64" cy="64" r="48"/>
<circle fill="#FCB711" cx="192" cy="192" r="48"/>


  </g></defs>
  <rect fill="#FCB711" width="256" height="256"/>
  <g>
    <use xlink:href="#id-0.0728853861532952" x="-256" y="-256"/><use xlink:href="#id-0.0728853861532952" x="0" y="-256"/><use xlink:href="#id-0.0728853861532952" x="256" y="-256"/><use xlink:href="#id-0.0728853861532952" x="-256" y="0"/><use xlink:href="#id-0.0728853861532952" x="0" y="0"/><use xlink:href="#id-0.0728853861532952" x="256" y="0"/><use xlink:href="#id-0.0728853861532952" x="-256" y="256"/><use xlink:href="#id-0.0728853861532952" x="0" y="256"/><use xlink:href="#id-0.0728853861532952" x="256" y="256"/>
    <animateTransform attributeName="transform" type="translate" dur="4s" repeatCount="indefinite" keyTimes="0;1" values="0;256"/>
  </g>
</svg>